<svg width="149" height="17" viewBox="0 0 149 17" fill="none" xmlns="http://www.w3.org/2000/svg">
<path d="M16.0367 3.01311C14.1982 3.01311 11.7332 4.27401 10.0772 6.4418H8.70415C7.71248 6.4418 7.14422 7.1824 6.75252 7.96499L6.22712 9.01332H8.70415L11.2755 11.5848V14.0612L12.3237 13.5366C13.1062 13.1457 13.8468 12.5766 13.8468 11.5848V10.2116C16.0144 8.55558 17.2752 6.0895 17.2752 4.25172V3.01311H16.0367ZM13.8468 5.58463C14.0741 5.58463 14.2921 5.67494 14.4529 5.83569C14.6136 5.99644 14.7039 6.21446 14.7039 6.4418C14.7039 6.66914 14.6136 6.88716 14.4529 7.04791C14.2921 7.20866 14.0741 7.29897 13.8468 7.29897C13.6195 7.29897 13.4015 7.20866 13.2407 7.04791C13.08 6.88716 12.9897 6.66914 12.9897 6.4418C12.9897 6.21446 13.08 5.99644 13.2407 5.83569C13.4015 5.67494 13.6195 5.58463 13.8468 5.58463ZM8.2756 10.7277L7.84705 11.1562C7.22822 11.7751 6.98994 13.2992 6.98994 13.2992C6.98994 13.2992 8.44531 13.1295 9.13271 12.442L9.56126 12.0134L8.2756 10.7277Z" fill="#4AA1EE"/>
<path d="M6.70753 16.7395H5.87056C4.42175 16.7362 1.68567 15.6816 1.68567 11.7177C1.68567 9.2352 0.0803498 9.20675 0.0117177 9.20675L0 7.53279C0.281224 7.52442 1.68567 7.3654 1.68567 5.02186C1.68567 1.05794 4.42175 0.00334791 5.86888 0H6.70753V1.67395H5.87056C5.62197 1.67898 3.35963 1.81875 3.35963 5.02186C3.35963 6.68996 2.80304 7.73869 2.10249 8.36977C2.80304 9.00085 3.35963 10.0496 3.35963 11.7177C3.35963 14.9208 5.62197 15.0606 5.87976 15.0656H6.70753V16.7395Z" fill="#4AA1EE"/>
<path d="M16.8735 16.7395H17.7104C19.1592 16.7362 21.8953 15.6816 21.8953 11.7177C21.8953 9.2352 23.5006 9.20675 23.5693 9.20675L23.581 7.53279C23.2998 7.52442 21.8953 7.3654 21.8953 5.02186C21.8953 1.05794 19.1592 0.00334791 17.7121 0H16.8735V1.67395H17.7104C17.959 1.67898 20.2214 1.81875 20.2214 5.02186C20.2214 6.68996 20.778 7.73869 21.4785 8.36977C20.778 9.00085 20.2214 10.0496 20.2214 11.7177C20.2214 14.9208 17.959 15.0606 17.7012 15.0656H16.8735V16.7395Z" fill="#4AA1EE"/>
<path d="M35.8067 12.1512H34.4993V15.7466H29.6783V1.44702H36.5625C37.8835 1.44702 39.0343 1.66492 40.0148 2.10072C40.9954 2.53651 41.7512 3.16297 42.2823 3.98009C42.8135 4.7972 43.079 5.7505 43.079 6.83999C43.079 7.86139 42.8475 8.75341 42.3845 9.51605C41.9214 10.2787 41.2541 10.8847 40.3825 11.3341L43.3854 15.7466H38.2376L35.8067 12.1512ZM38.2172 6.83999C38.2172 6.30887 38.0538 5.90031 37.7269 5.61432C37.4001 5.31471 36.9098 5.16491 36.2561 5.16491H34.4993V8.51508H36.2561C36.9098 8.51508 37.4001 8.37209 37.7269 8.0861C38.0538 7.78649 38.2172 7.37112 38.2172 6.83999Z" fill="#037EEB"/>
<path d="M52.3966 16.0734C50.8576 16.0734 49.4754 15.7534 48.2497 15.1133C47.024 14.4732 46.0639 13.588 45.3694 12.4577C44.6748 11.3137 44.3275 10.0267 44.3275 8.59679C44.3275 7.16684 44.6748 5.88669 45.3694 4.75635C46.0639 3.61238 47.024 2.72036 48.2497 2.08029C49.4754 1.44022 50.8576 1.12018 52.3966 1.12018C53.9355 1.12018 55.3177 1.44022 56.5434 2.08029C57.7691 2.72036 58.7292 3.61238 59.4238 4.75635C60.1183 5.88669 60.4656 7.16684 60.4656 8.59679C60.4656 10.0267 60.1183 11.3137 59.4238 12.4577C58.7292 13.588 57.7691 14.4732 56.5434 15.1133C55.3177 15.7534 53.9355 16.0734 52.3966 16.0734ZM52.3966 12.1717C52.9958 12.1717 53.5337 12.0287 54.0104 11.7427C54.5006 11.4431 54.8888 11.0277 55.1747 10.4966C55.4607 9.95185 55.6037 9.31858 55.6037 8.59679C55.6037 7.87501 55.4607 7.24855 55.1747 6.71743C54.8888 6.17268 54.5006 5.75731 54.0104 5.47132C53.5337 5.17171 52.9958 5.02191 52.3966 5.02191C51.7973 5.02191 51.2526 5.17171 50.7623 5.47132C50.2857 5.75731 49.9043 6.17268 49.6184 6.71743C49.3324 7.24855 49.1894 7.87501 49.1894 8.59679C49.1894 9.31858 49.3324 9.95185 49.6184 10.4966C49.9043 11.0277 50.2857 11.4431 50.7623 11.7427C51.2526 12.0287 51.7973 12.1717 52.3966 12.1717Z" fill="#037EEB"/>
<path d="M69.6103 16.0734C68.0986 16.0734 66.7367 15.7602 65.5247 15.1337C64.3126 14.4937 63.3593 13.6084 62.6648 12.4781C61.9838 11.3341 61.6434 10.0404 61.6434 8.59679C61.6434 7.15322 61.9838 5.86626 62.6648 4.73592C63.3593 3.59196 64.3126 2.70675 65.5247 2.08029C66.7367 1.44022 68.0986 1.12018 69.6103 1.12018C70.9994 1.12018 72.2386 1.36531 73.3281 1.85558C74.4176 2.34585 75.3165 3.05402 76.0246 3.98009L72.9809 6.697C72.0957 5.58027 71.0538 5.02191 69.8554 5.02191C68.8476 5.02191 68.0373 5.34876 67.4245 6.00245C66.8116 6.64252 66.5052 7.50731 66.5052 8.59679C66.5052 9.68628 66.8116 10.5579 67.4245 11.2116C68.0373 11.8516 68.8476 12.1717 69.8554 12.1717C71.0538 12.1717 72.0957 11.6133 72.9809 10.4966L76.0246 13.2135C75.3165 14.1396 74.4176 14.8477 73.3281 15.338C72.2386 15.8283 70.9994 16.0734 69.6103 16.0734Z" fill="#037EEB"/>
<path d="M83.2385 11.0073L82.1559 12.2125V15.7466H77.4166V1.44702H82.1559V6.63571L86.8543 1.44702H92.1043L86.3844 7.73882L92.3903 15.7466H86.8134L83.2385 11.0073Z" fill="#037EEB"/>
<path d="M104.926 12.1104V15.7466H93.0368V1.44702H104.66V5.08319H97.776V6.75828H103.823V10.231H97.776V12.1104H104.926Z" fill="#037EEB"/>
<path d="M109.887 5.18533H105.699V1.44702H118.895V5.18533H114.708V15.7466H109.887V5.18533Z" fill="#037EEB"/>
<path d="M130.692 11.9929H122.416L120.634 16H119L125.79 1H127.339L134.129 16H132.474L130.692 11.9929ZM130.119 10.7071L126.554 2.65L122.989 10.7071H130.119Z" fill="#4AA1EE"/>
<path d="M149 1V16H147.706L138.157 3.82857V16H136.587V1H137.881L147.451 13.1714V1H149Z" fill="#4AA1EE"/>
</svg>
